<?xml version="1.0" encoding="utf-8"?>
<!-- Generator: Adobe Illustrator 16.0.0, SVG Export Plug-In . SVG Version: 6.00 Build 0)  -->
<!DOCTYPE svg PUBLIC "-//W3C//DTD SVG 1.1//EN" "http://www.w3.org/Graphics/SVG/1.1/DTD/svg11.dtd">
<svg version="1.1" id="Layer_1" xmlns="http://www.w3.org/2000/svg" xmlns:xlink="http://www.w3.org/1999/xlink" x="0px" y="0px"
	 width="240.752px" height="153px" viewBox="-120.376 -51 240.752 153" enable-background="new -120.376 -51 240.752 153"
	 xml:space="preserve">
<g>
	<g>
		<path d="M99.245-31.027l-10.833-2.06l2.899-8.849l10.146,5.036l-1.602-11.138h9.305l-1.526,10.985l9.918-4.882l2.823,8.926
			l-10.984,1.908l7.782,7.857l-7.706,5.57l-5.111-9.842l-5.495,9.766l-7.476-5.417L99.245-31.027z M76.32-51h1.004v36.135H76.32V-51
			z M65.344-29.931c0,6.518-4.23,9.453-10.441,9.453s-10.441-2.936-10.441-9.453v-14.775h6.347v13.718
			c0,3.139,0.854,5.801,4.094,5.801c3.243,0,4.095-2.662,4.095-5.801v-13.718h6.346V-29.931L65.344-29.931z M25.348-44.706h7.781
			l9.179,23.818h-6.961l-1.776-5.084h-8.94l-1.875,5.084h-6.45L25.348-44.706z M29.238-39.792h-0.066l-3.072,9.316h5.972
			L29.238-39.792z M-2.772-44.706h16.789v4.504H3.575v4.914h9.861v4.504H3.575v5.392h10.816v4.504H-2.772V-44.706z M-25.536-44.706
			h10.954c4.436,0,7.748,1.945,7.748,6.04c0,3.003-1.536,4.675-4.198,5.562v0.068c3.174,0.648,4.811,2.355,4.811,5.254
			c0,5.7-5.017,6.893-9.282,6.893h-10.033V-44.706z M-19.188-35.289h1.774c2.082,0,4.232-0.511,4.232-2.525
			c0-2.185-2.048-2.389-4.164-2.389h-1.842L-19.188-35.289L-19.188-35.289z M-19.188-25.391h1.876c2.321,0,4.744-0.342,4.744-2.765
			c0-2.594-2.491-2.832-4.675-2.832h-1.945V-25.391z M-44.818-44.706h7.78l9.179,23.818h-6.961l-1.775-5.084h-8.94l-1.877,5.084
			h-6.449L-44.818-44.706z M-40.929-39.792h-0.068l-3.072,9.316h5.973L-40.929-39.792z M-74.85-44.706h11.33
			c4.231,0,7.678,1.911,7.678,6.005c0,3.174-1.502,5.29-4.573,6.005v0.069c2.048,0.546,2.185,2.354,3.379,5.255l2.321,6.483h-6.62
			l-1.365-4.299c-1.297-4.095-2.116-5.119-4.471-5.119h-1.331v9.418h-6.348L-74.85-44.706L-74.85-44.706z M-68.503-34.811h1.672
			c2.047,0,4.641-0.068,4.641-2.764c0-2.217-2.217-2.628-4.641-2.628h-1.672V-34.811z M-85.771-44.706h6.347v23.818h-6.347V-44.706z
			 M-120.376-44.706h9.999l5.05,15.833h0.068l5.29-15.833h9.623v23.818h-6.21l0.103-18.291h-0.068l-6.075,18.291h-5.834
			l-5.802-18.291h-0.068l0.137,18.291h-6.21V-44.706z"/>
		<g>
			<path fill="#2E2A25" d="M-4.035-2.04l2.465-7.819h1.28L2.26-2.04H1.139L0.576-3.915h-3.028L-3.031-2.04H-4.035z M-2.192-4.787
				h2.486L-0.97-8.972L-2.192-4.787z"/>
			<path fill="#2E2A25" d="M9.319-4.34h1.025c0,0.85-0.185,1.473-0.558,1.87c-0.369,0.396-0.938,0.595-1.71,0.595
				c-0.769,0-1.364-0.211-1.785-0.632C5.874-2.932,5.665-3.731,5.665-4.903v-2.321c0-1.867,0.826-2.8,2.475-2.8
				c1.414,0,2.121,0.6,2.121,1.801v0.494H9.235v-0.26c0-0.793-0.381-1.19-1.142-1.19c-0.418,0-0.757,0.133-1.016,0.398
				C6.82-8.515,6.69-7.929,6.69-7.023v2.258c0,0.688,0.095,1.201,0.286,1.541C7.172-2.888,7.542-2.72,8.087-2.72
				c0.386,0,0.687-0.144,0.903-0.43C9.21-3.44,9.319-3.837,9.319-4.34z"/>
			<path fill="#2E2A25" d="M11.545-4.733c0-1.144,0.165-1.921,0.494-2.332c0.333-0.411,0.872-0.617,1.616-0.617
				c0.779,0,1.319,0.225,1.62,0.675c0.301,0.446,0.451,1.174,0.451,2.184c0,1.08-0.156,1.834-0.467,2.263
				c-0.312,0.425-0.847,0.637-1.604,0.637c-0.737,0-1.273-0.198-1.61-0.594C11.711-2.918,11.545-3.656,11.545-4.733z M12.497-5.089
				c0,0.92,0.075,1.558,0.229,1.913c0.152,0.35,0.461,0.526,0.929,0.526c0.435,0,0.731-0.179,0.887-0.537
				c0.156-0.358,0.233-0.992,0.233-1.902c0-0.727-0.099-1.218-0.297-1.477c-0.198-0.259-0.477-0.388-0.834-0.388
				c-0.404,0-0.696,0.14-0.876,0.42C12.586-6.258,12.497-5.776,12.497-5.089z"/>
			<path fill="#2E2A25" d="M17.283-1.445h1.019c0,0.276,0.087,0.475,0.261,0.595c0.174,0.117,0.358,0.176,0.553,0.176
				c0.63,0,0.945-0.309,0.945-0.924V-2.72c-0.266,0.454-0.679,0.68-1.243,0.68c-0.726,0-1.225-0.31-1.498-0.93
				c-0.195-0.446-0.292-1.106-0.292-1.981c0-1.82,0.577-2.73,1.732-2.73c0.604,0,1.039,0.284,1.301,0.851v-0.733h0.893v6.061
				C20.954-0.501,20.318,0,19.046,0c-0.58,0-1.02-0.126-1.317-0.377c-0.297-0.255-0.446-0.554-0.446-0.897V-1.445z M17.979-4.956
				c0,0.79,0.085,1.353,0.255,1.689c0.169,0.333,0.439,0.5,0.808,0.5c0.34,0,0.598-0.134,0.775-0.404
				c0.18-0.272,0.271-0.825,0.271-1.657c0-0.839-0.083-1.403-0.249-1.689c-0.167-0.29-0.427-0.436-0.781-0.436
				c-0.4,0-0.68,0.167-0.839,0.5C18.058-6.125,17.979-5.625,17.979-4.956z"/>
			<path fill="#2E2A25" d="M23.471-2.04h-0.892v-4.553c0-0.266-0.009-0.589-0.026-0.972h0.951l-0.032,0.733
				c0.163-0.315,0.369-0.535,0.617-0.659c0.251-0.128,0.549-0.192,0.892-0.192c0.506,0,0.876,0.135,1.11,0.404
				c0.237,0.266,0.356,0.726,0.356,1.381v3.856h-0.893v-3.84c0-0.716-0.317-1.073-0.951-1.073c-0.754,0-1.131,0.519-1.131,1.557
				V-2.04z"/>
			<path fill="#2E2A25" d="M27.944-9.971h1.009v0.961h-1.009V-9.971z M28.002-7.564h0.893v5.524h-0.893V-7.564z"/>
			<path fill="#2E2A25" d="M30.032-2.04v-0.839l2.412-3.958h-2.284v-0.728h3.272v0.818l-2.438,3.979h2.507v0.728H30.032z"/>
			<path fill="#2E2A25" d="M34.727-6.067c0.021-1.076,0.636-1.615,1.844-1.615c1.208,0,1.812,0.558,1.812,1.674v2.714
				c0,0.439,0.042,0.857,0.127,1.253h-0.994v-0.823c-0.255,0.627-0.714,0.94-1.375,0.94c-1.027,0-1.541-0.6-1.541-1.801
				c0-0.559,0.185-0.989,0.553-1.291c0.368-0.301,0.917-0.452,1.646-0.452h0.69v-0.473c0-0.711-0.312-1.067-0.94-1.067
				c-0.252,0-0.46,0.078-0.626,0.234c-0.164,0.152-0.245,0.388-0.245,0.706H34.727z M37.293-4.792c-0.676,0-1.146,0.088-1.408,0.266
				c-0.263,0.177-0.393,0.458-0.393,0.845c0,0.318,0.078,0.57,0.233,0.754c0.156,0.184,0.362,0.276,0.617,0.276
				c0.36,0,0.642-0.142,0.844-0.426c0.202-0.283,0.303-0.855,0.303-1.715H37.293z"/>
			<path fill="#2E2A25" d="M41.001-2.04H40.11v-4.553c0-0.266-0.009-0.589-0.027-0.972h0.951l-0.033,0.733
				c0.163-0.315,0.369-0.535,0.617-0.659c0.251-0.128,0.549-0.192,0.892-0.192c0.507,0,0.876,0.135,1.11,0.404
				c0.237,0.266,0.356,0.726,0.356,1.381v3.856h-0.893v-3.84c0-0.716-0.316-1.073-0.951-1.073c-0.754,0-1.131,0.519-1.131,1.557
				V-2.04z"/>
			<path fill="#2E2A25" d="M44.735-6.89v-0.674h0.909v-1.046l0.893-0.398v1.445h1.19v0.674h-1.19v3.527
				c0,0.23,0.064,0.407,0.196,0.531c0.134,0.121,0.335,0.181,0.601,0.181c0.099,0,0.237-0.014,0.414-0.043v0.675
				c-0.213,0.063-0.506,0.095-0.881,0.095c-0.814,0-1.222-0.336-1.222-1.009V-6.89H44.735z"/>
			<path fill="#2E2A25" d="M51.117-2.04v-7.819h2.411c0.839,0,1.47,0.251,1.891,0.754c0.421,0.499,0.632,1.491,0.632,2.975
				c0,1.771-0.239,2.895-0.717,3.374c-0.475,0.478-1.194,0.717-2.157,0.717H51.117z M52.142-2.911h1.015
				c0.69,0,1.173-0.17,1.45-0.51c0.28-0.344,0.419-0.921,0.419-1.732V-6.9c0-0.758-0.129-1.294-0.387-1.609
				C54.38-8.829,54-8.988,53.497-8.988h-1.354V-2.911z"/>
			<path fill="#2E2A25" d="M57.56-9.971h1.009v0.961H57.56V-9.971z M57.618-7.564h0.893v5.524h-0.893V-7.564z"/>
			<path fill="#2E2A25" d="M60.194-1.445h1.02c0,0.276,0.087,0.475,0.261,0.595c0.174,0.117,0.358,0.176,0.553,0.176
				c0.63,0,0.945-0.309,0.945-0.924V-2.72c-0.266,0.454-0.679,0.68-1.243,0.68c-0.726,0-1.225-0.31-1.498-0.93
				c-0.195-0.446-0.292-1.106-0.292-1.981c0-1.82,0.577-2.73,1.732-2.73c0.604,0,1.039,0.284,1.301,0.851v-0.733h0.893v6.061
				C63.866-0.501,63.229,0,61.958,0c-0.58,0-1.02-0.126-1.317-0.377c-0.297-0.255-0.446-0.554-0.446-0.897V-1.445z M60.891-4.956
				c0,0.79,0.085,1.353,0.255,1.689c0.169,0.333,0.439,0.5,0.808,0.5c0.34,0,0.598-0.134,0.775-0.404
				c0.18-0.272,0.271-0.825,0.271-1.657c0-0.839-0.083-1.403-0.249-1.689c-0.167-0.29-0.427-0.436-0.781-0.436
				c-0.4,0-0.68,0.167-0.839,0.5C60.97-6.125,60.891-5.625,60.891-4.956z"/>
			<path fill="#2E2A25" d="M65.417-9.971h1.008v0.961h-1.008V-9.971z M65.474-7.564h0.893v5.524h-0.893V-7.564z"/>
			<path fill="#2E2A25" d="M67.094-6.89v-0.674h0.909v-1.046l0.893-0.398v1.445h1.19v0.674h-1.19v3.527
				c0,0.23,0.065,0.407,0.196,0.531c0.134,0.121,0.335,0.181,0.601,0.181c0.099,0,0.237-0.014,0.414-0.043v0.675
				c-0.212,0.063-0.505,0.095-0.881,0.095c-0.815,0-1.223-0.336-1.223-1.009V-6.89H67.094z"/>
			<path fill="#2E2A25" d="M70.989-6.067c0.021-1.076,0.636-1.615,1.844-1.615c1.208,0,1.812,0.558,1.812,1.674v2.714
				c0,0.439,0.042,0.857,0.127,1.253h-0.994v-0.823c-0.255,0.627-0.714,0.94-1.375,0.94c-1.027,0-1.541-0.6-1.541-1.801
				c0-0.559,0.185-0.989,0.553-1.291c0.368-0.301,0.917-0.452,1.646-0.452h0.69v-0.473c0-0.711-0.312-1.067-0.94-1.067
				c-0.252,0-0.46,0.078-0.626,0.234c-0.164,0.152-0.245,0.388-0.245,0.706H70.989z M73.555-4.792c-0.676,0-1.146,0.088-1.408,0.266
				c-0.263,0.177-0.393,0.458-0.393,0.845c0,0.318,0.078,0.57,0.233,0.754c0.156,0.184,0.362,0.276,0.617,0.276
				c0.36,0,0.642-0.142,0.844-0.426c0.202-0.283,0.303-0.855,0.303-1.715H73.555z"/>
			<path fill="#2E2A25" d="M76.354-2.04v-7.819h0.893v7.819H76.354z"/>
			<path fill="#2E2A25" d="M81.395-2.04v-7.819h2.613c0.637,0,1.14,0.17,1.509,0.51c0.371,0.337,0.558,0.792,0.558,1.366
				c0,1.059-0.501,1.673-1.504,1.843c1.172,0.096,1.759,0.731,1.759,1.907c0,0.74-0.196,1.29-0.589,1.651S84.798-2.04,84.094-2.04
				H81.395z M82.42-6.576h1.46c0.779,0,1.168-0.41,1.168-1.228c0-0.372-0.108-0.662-0.323-0.871
				c-0.217-0.209-0.512-0.313-0.887-0.313H82.42V-6.576z M82.42-2.911h1.456c0.414,0,0.756-0.124,1.024-0.372
				c0.27-0.248,0.404-0.572,0.404-0.973c0-0.488-0.134-0.851-0.404-1.089c-0.269-0.241-0.717-0.361-1.344-0.361H82.42V-2.911z"/>
			<path fill="#2E2A25" d="M87.892-7.564h0.892v3.84c0,0.751,0.307,1.126,0.919,1.126c0.357,0,0.626-0.131,0.808-0.393
				c0.18-0.262,0.271-0.551,0.271-0.866v-3.708h0.893v4.553c0,0.269,0.009,0.593,0.026,0.972h-0.919v-0.733
				c-0.279,0.566-0.758,0.85-1.434,0.85c-0.454,0-0.81-0.117-1.067-0.35c-0.259-0.237-0.388-0.583-0.388-1.036V-7.564z"/>
			<path fill="#2E2A25" d="M94.08-3.708c0,0.705,0.292,1.057,0.876,1.057c0.309,0,0.544-0.066,0.707-0.197
				c0.163-0.135,0.244-0.343,0.244-0.627c0-0.198-0.092-0.366-0.275-0.505c-0.184-0.142-0.46-0.295-0.829-0.462
				c-0.517-0.234-0.916-0.482-1.195-0.744c-0.28-0.266-0.42-0.583-0.42-0.951c0-0.485,0.168-0.864,0.505-1.137
				c0.336-0.272,0.802-0.409,1.397-0.409c0.556,0,0.982,0.121,1.28,0.361c0.297,0.238,0.446,0.526,0.446,0.866v0.303h-1.02
				c0-0.57-0.273-0.855-0.818-0.855c-0.248,0-0.45,0.067-0.605,0.202c-0.156,0.134-0.233,0.318-0.233,0.552
				c0,0.213,0.138,0.402,0.414,0.568c0.276,0.163,0.553,0.305,0.829,0.425c0.468,0.219,0.831,0.453,1.089,0.701
				c0.258,0.248,0.387,0.556,0.387,0.924c0,1.141-0.633,1.71-1.902,1.71c-1.264,0-1.896-0.594-1.896-1.784H94.08z"/>
			<path fill="#2E2A25" d="M98.044-9.971h1.008v0.961h-1.008V-9.971z M98.102-7.564h0.893v5.524h-0.893V-7.564z"/>
			<path fill="#2E2A25" d="M101.427-2.04h-0.892v-4.553c0-0.266-0.009-0.589-0.026-0.972h0.951l-0.032,0.733
				c0.163-0.315,0.368-0.535,0.616-0.659c0.251-0.128,0.549-0.192,0.892-0.192c0.507,0,0.876,0.135,1.111,0.404
				c0.237,0.266,0.355,0.726,0.355,1.381v3.856h-0.893v-3.84c0-0.716-0.317-1.073-0.951-1.073c-0.753,0-1.131,0.519-1.131,1.557
				V-2.04z"/>
			<path fill="#2E2A25" d="M106.841-4.516c0,0.716,0.088,1.207,0.266,1.472c0.178,0.262,0.453,0.393,0.829,0.393
				c0.273,0,0.494-0.096,0.665-0.288c0.169-0.194,0.264-0.451,0.281-0.77h0.977c0,0.556-0.167,0.993-0.499,1.312
				c-0.333,0.315-0.797,0.472-1.392,0.472c-0.85,0-1.41-0.262-1.679-0.786c-0.266-0.527-0.398-1.202-0.398-2.023
				c0-1.098,0.158-1.863,0.472-2.295c0.319-0.436,0.856-0.654,1.61-0.654c0.715,0,1.214,0.201,1.499,0.601
				c0.286,0.397,0.431,1.059,0.431,1.987v0.579H106.841z M106.841-5.19h2.108c0-0.762-0.111-1.279-0.334-1.551
				c-0.142-0.177-0.369-0.266-0.68-0.266c-0.396,0-0.679,0.133-0.844,0.398C106.924-6.343,106.841-5.87,106.841-5.19z"/>
			<path fill="#2E2A25" d="M112.206-3.708c0,0.705,0.292,1.057,0.876,1.057c0.309,0,0.544-0.066,0.707-0.197
				c0.163-0.135,0.244-0.343,0.244-0.627c0-0.198-0.092-0.366-0.275-0.505c-0.184-0.142-0.46-0.295-0.829-0.462
				c-0.517-0.234-0.916-0.482-1.195-0.744c-0.281-0.266-0.42-0.583-0.42-0.951c0-0.485,0.168-0.864,0.505-1.137
				c0.336-0.272,0.802-0.409,1.397-0.409c0.556,0,0.982,0.121,1.28,0.361c0.297,0.238,0.446,0.526,0.446,0.866v0.303h-1.02
				c0-0.57-0.273-0.855-0.818-0.855c-0.248,0-0.45,0.067-0.605,0.202c-0.156,0.134-0.233,0.318-0.233,0.552
				c0,0.213,0.138,0.402,0.414,0.568c0.276,0.163,0.553,0.305,0.829,0.425c0.468,0.219,0.831,0.453,1.089,0.701
				c0.258,0.248,0.387,0.556,0.387,0.924c0,1.141-0.633,1.71-1.902,1.71c-1.264,0-1.896-0.594-1.896-1.784H112.206z"/>
			<path fill="#2E2A25" d="M117.034-3.708c0,0.705,0.292,1.057,0.876,1.057c0.309,0,0.544-0.066,0.707-0.197
				c0.163-0.135,0.244-0.343,0.244-0.627c0-0.198-0.092-0.366-0.275-0.505c-0.184-0.142-0.46-0.295-0.829-0.462
				c-0.517-0.234-0.916-0.482-1.195-0.744c-0.281-0.266-0.42-0.583-0.42-0.951c0-0.485,0.168-0.864,0.505-1.137
				c0.336-0.272,0.802-0.409,1.397-0.409c0.556,0,0.982,0.121,1.28,0.361c0.297,0.238,0.446,0.526,0.446,0.866v0.303h-1.02
				c0-0.57-0.273-0.855-0.818-0.855c-0.248,0-0.45,0.067-0.605,0.202c-0.156,0.134-0.233,0.318-0.233,0.552
				c0,0.213,0.138,0.402,0.414,0.568c0.276,0.163,0.553,0.305,0.829,0.425c0.468,0.219,0.831,0.453,1.089,0.701
				c0.258,0.248,0.387,0.556,0.387,0.924c0,1.141-0.633,1.71-1.902,1.71c-1.264,0-1.896-0.594-1.896-1.784H117.034z"/>
		</g>
	</g>
	<g>
		<path fill="#FFFFFF" d="M99.245,19.973l-10.833-2.06l2.899-8.849l10.146,5.036L99.856,2.961h9.305l-1.526,10.985l9.918-4.882
			l2.823,8.926l-10.984,1.908l7.782,7.857l-7.706,5.57l-5.111-9.842l-5.495,9.766l-7.476-5.417L99.245,19.973z M76.32,0h1.004
			v36.135H76.32V0z M65.344,21.069c0,6.518-4.23,9.453-10.441,9.453s-10.441-2.936-10.441-9.453V6.294h6.347v13.718
			c0,3.139,0.854,5.801,4.094,5.801c3.243,0,4.095-2.662,4.095-5.801V6.294h6.346V21.069L65.344,21.069z M25.348,6.294h7.781
			l9.179,23.818h-6.961l-1.776-5.084h-8.94l-1.875,5.084h-6.45L25.348,6.294z M29.238,11.208h-0.066l-3.072,9.316h5.972
			L29.238,11.208z M-2.772,6.294h16.789v4.504H3.575v4.914h9.861v4.504H3.575v5.392h10.816v4.504H-2.772V6.294z M-25.536,6.294
			h10.954c4.436,0,7.748,1.945,7.748,6.04c0,3.003-1.536,4.675-4.198,5.562v0.068c3.174,0.648,4.811,2.355,4.811,5.254
			c0,5.7-5.017,6.893-9.282,6.893h-10.033V6.294z M-19.188,15.711h1.774c2.082,0,4.232-0.511,4.232-2.525
			c0-2.185-2.048-2.389-4.164-2.389h-1.842L-19.188,15.711L-19.188,15.711z M-19.188,25.609h1.876c2.321,0,4.744-0.342,4.744-2.765
			c0-2.594-2.491-2.832-4.675-2.832h-1.945V25.609z M-44.818,6.294h7.78l9.179,23.818h-6.961l-1.775-5.084h-8.94l-1.877,5.084
			h-6.449L-44.818,6.294z M-40.929,11.208h-0.068l-3.072,9.316h5.973L-40.929,11.208z M-74.85,6.294h11.33
			c4.231,0,7.678,1.911,7.678,6.005c0,3.174-1.502,5.29-4.573,6.005v0.069c2.048,0.546,2.185,2.354,3.379,5.255l2.321,6.483h-6.62
			l-1.365-4.299c-1.297-4.095-2.116-5.119-4.471-5.119h-1.331v9.418h-6.348L-74.85,6.294L-74.85,6.294z M-68.503,16.189h1.672
			c2.047,0,4.641-0.068,4.641-2.764c0-2.217-2.217-2.628-4.641-2.628h-1.672V16.189z M-85.771,6.294h6.347v23.818h-6.347V6.294z
			 M-120.376,6.294h9.999l5.05,15.833h0.068l5.29-15.833h9.623v23.818h-6.21l0.103-18.291h-0.068l-6.075,18.291h-5.834
			l-5.802-18.291h-0.068l0.137,18.291h-6.21V6.294z"/>
		<g>
			<path fill="#FFFFFF" d="M-4.035,48.96l2.465-7.819h1.28l2.55,7.819H1.139l-0.563-1.875h-3.028l-0.579,1.875H-4.035z
				 M-2.192,46.213h2.486l-1.264-4.186L-2.192,46.213z"/>
			<path fill="#FFFFFF" d="M9.319,46.66h1.025c0,0.85-0.185,1.473-0.558,1.87c-0.369,0.396-0.938,0.595-1.71,0.595
				c-0.769,0-1.364-0.211-1.785-0.632c-0.417-0.425-0.626-1.224-0.626-2.396v-2.321c0-1.867,0.826-2.8,2.475-2.8
				c1.414,0,2.121,0.6,2.121,1.801v0.494H9.235v-0.26c0-0.793-0.381-1.19-1.142-1.19c-0.418,0-0.757,0.133-1.016,0.398
				C6.82,42.485,6.69,43.071,6.69,43.977v2.258c0,0.688,0.095,1.201,0.286,1.541c0.195,0.337,0.566,0.505,1.111,0.505
				c0.386,0,0.687-0.144,0.903-0.43C9.21,47.56,9.319,47.163,9.319,46.66z"/>
			<path fill="#FFFFFF" d="M11.545,46.267c0-1.144,0.165-1.921,0.494-2.332c0.333-0.411,0.872-0.617,1.616-0.617
				c0.779,0,1.319,0.225,1.62,0.675c0.301,0.446,0.451,1.174,0.451,2.184c0,1.08-0.156,1.834-0.467,2.263
				c-0.312,0.425-0.847,0.637-1.604,0.637c-0.737,0-1.273-0.198-1.61-0.594C11.711,48.082,11.545,47.344,11.545,46.267z
				 M12.497,45.911c0,0.92,0.075,1.558,0.229,1.913c0.152,0.35,0.461,0.526,0.929,0.526c0.435,0,0.731-0.179,0.887-0.537
				c0.156-0.358,0.233-0.992,0.233-1.902c0-0.727-0.099-1.218-0.297-1.477c-0.198-0.259-0.477-0.388-0.834-0.388
				c-0.404,0-0.696,0.14-0.876,0.42C12.586,44.742,12.497,45.224,12.497,45.911z"/>
			<path fill="#FFFFFF" d="M17.283,49.555h1.019c0,0.276,0.087,0.475,0.261,0.595c0.174,0.117,0.358,0.176,0.553,0.176
				c0.63,0,0.945-0.309,0.945-0.924V48.28c-0.266,0.454-0.679,0.68-1.243,0.68c-0.726,0-1.225-0.31-1.498-0.93
				c-0.195-0.446-0.292-1.106-0.292-1.981c0-1.82,0.577-2.73,1.732-2.73c0.604,0,1.039,0.284,1.301,0.851v-0.733h0.893v6.061
				c0,1.002-0.636,1.503-1.908,1.503c-0.58,0-1.02-0.126-1.317-0.377c-0.297-0.255-0.446-0.554-0.446-0.897V49.555z M17.979,46.044
				c0,0.79,0.085,1.353,0.255,1.689c0.169,0.333,0.439,0.5,0.808,0.5c0.34,0,0.598-0.134,0.775-0.404
				c0.18-0.272,0.271-0.825,0.271-1.657c0-0.839-0.083-1.403-0.249-1.689c-0.167-0.29-0.427-0.436-0.781-0.436
				c-0.4,0-0.68,0.167-0.839,0.5C18.058,44.875,17.979,45.375,17.979,46.044z"/>
			<path fill="#FFFFFF" d="M23.471,48.96h-0.892v-4.553c0-0.266-0.009-0.589-0.026-0.972h0.951l-0.032,0.733
				c0.163-0.315,0.369-0.535,0.617-0.659c0.251-0.128,0.549-0.192,0.892-0.192c0.506,0,0.876,0.135,1.11,0.404
				c0.237,0.266,0.356,0.726,0.356,1.381v3.856h-0.893v-3.84c0-0.716-0.317-1.073-0.951-1.073c-0.754,0-1.131,0.519-1.131,1.557
				V48.96z"/>
			<path fill="#FFFFFF" d="M27.944,41.029h1.009v0.961h-1.009V41.029z M28.002,43.436h0.893v5.524h-0.893V43.436z"/>
			<path fill="#FFFFFF" d="M30.032,48.96v-0.839l2.412-3.958h-2.284v-0.728h3.272v0.818l-2.438,3.979h2.507v0.728H30.032z"/>
			<path fill="#FFFFFF" d="M34.727,44.933c0.021-1.076,0.636-1.615,1.844-1.615c1.208,0,1.812,0.558,1.812,1.674v2.714
				c0,0.439,0.042,0.857,0.127,1.253h-0.994v-0.823c-0.255,0.627-0.714,0.94-1.375,0.94c-1.027,0-1.541-0.6-1.541-1.801
				c0-0.559,0.185-0.989,0.553-1.291c0.368-0.301,0.917-0.452,1.646-0.452h0.69v-0.473c0-0.711-0.312-1.067-0.94-1.067
				c-0.252,0-0.46,0.078-0.626,0.234c-0.164,0.152-0.245,0.388-0.245,0.706H34.727z M37.293,46.208
				c-0.676,0-1.146,0.088-1.408,0.266c-0.263,0.177-0.393,0.458-0.393,0.845c0,0.318,0.078,0.57,0.233,0.754
				c0.156,0.184,0.362,0.276,0.617,0.276c0.36,0,0.642-0.142,0.844-0.426c0.202-0.283,0.303-0.855,0.303-1.715H37.293z"/>
			<path fill="#FFFFFF" d="M41.001,48.96H40.11v-4.553c0-0.266-0.009-0.589-0.027-0.972h0.951l-0.033,0.733
				c0.163-0.315,0.369-0.535,0.617-0.659c0.251-0.128,0.549-0.192,0.892-0.192c0.507,0,0.876,0.135,1.11,0.404
				c0.237,0.266,0.356,0.726,0.356,1.381v3.856h-0.893v-3.84c0-0.716-0.316-1.073-0.951-1.073c-0.754,0-1.131,0.519-1.131,1.557
				V48.96z"/>
			<path fill="#FFFFFF" d="M44.735,44.11v-0.674h0.909v-1.046l0.893-0.398v1.445h1.19v0.674h-1.19v3.527
				c0,0.23,0.064,0.407,0.196,0.531c0.134,0.121,0.335,0.181,0.601,0.181c0.099,0,0.237-0.014,0.414-0.043v0.675
				c-0.213,0.063-0.506,0.095-0.881,0.095c-0.814,0-1.222-0.336-1.222-1.009V44.11H44.735z"/>
			<path fill="#FFFFFF" d="M51.117,48.96v-7.819h2.411c0.839,0,1.47,0.251,1.891,0.754c0.421,0.499,0.632,1.491,0.632,2.975
				c0,1.771-0.239,2.895-0.717,3.374c-0.475,0.478-1.194,0.717-2.157,0.717H51.117z M52.142,48.089h1.015
				c0.69,0,1.173-0.17,1.45-0.51c0.28-0.344,0.419-0.921,0.419-1.732V44.1c0-0.758-0.129-1.294-0.387-1.609
				c-0.259-0.319-0.639-0.479-1.142-0.479h-1.354V48.089z"/>
			<path fill="#FFFFFF" d="M57.56,41.029h1.009v0.961H57.56V41.029z M57.618,43.436h0.893v5.524h-0.893V43.436z"/>
			<path fill="#FFFFFF" d="M60.194,49.555h1.02c0,0.276,0.087,0.475,0.261,0.595c0.174,0.117,0.358,0.176,0.553,0.176
				c0.63,0,0.945-0.309,0.945-0.924V48.28c-0.266,0.454-0.679,0.68-1.243,0.68c-0.726,0-1.225-0.31-1.498-0.93
				c-0.195-0.446-0.292-1.106-0.292-1.981c0-1.82,0.577-2.73,1.732-2.73c0.604,0,1.039,0.284,1.301,0.851v-0.733h0.893v6.061
				c0,1.002-0.636,1.503-1.908,1.503c-0.58,0-1.02-0.126-1.317-0.377c-0.297-0.255-0.446-0.554-0.446-0.897V49.555z M60.891,46.044
				c0,0.79,0.085,1.353,0.255,1.689c0.169,0.333,0.439,0.5,0.808,0.5c0.34,0,0.598-0.134,0.775-0.404
				c0.18-0.272,0.271-0.825,0.271-1.657c0-0.839-0.083-1.403-0.249-1.689c-0.167-0.29-0.427-0.436-0.781-0.436
				c-0.4,0-0.68,0.167-0.839,0.5C60.97,44.875,60.891,45.375,60.891,46.044z"/>
			<path fill="#FFFFFF" d="M65.417,41.029h1.008v0.961h-1.008V41.029z M65.474,43.436h0.893v5.524h-0.893V43.436z"/>
			<path fill="#FFFFFF" d="M67.094,44.11v-0.674h0.909v-1.046l0.893-0.398v1.445h1.19v0.674h-1.19v3.527
				c0,0.23,0.065,0.407,0.196,0.531c0.134,0.121,0.335,0.181,0.601,0.181c0.099,0,0.237-0.014,0.414-0.043v0.675
				c-0.212,0.063-0.505,0.095-0.881,0.095c-0.815,0-1.223-0.336-1.223-1.009V44.11H67.094z"/>
			<path fill="#FFFFFF" d="M70.989,44.933c0.021-1.076,0.636-1.615,1.844-1.615c1.208,0,1.812,0.558,1.812,1.674v2.714
				c0,0.439,0.042,0.857,0.127,1.253h-0.994v-0.823c-0.255,0.627-0.714,0.94-1.375,0.94c-1.027,0-1.541-0.6-1.541-1.801
				c0-0.559,0.185-0.989,0.553-1.291c0.368-0.301,0.917-0.452,1.646-0.452h0.69v-0.473c0-0.711-0.312-1.067-0.94-1.067
				c-0.252,0-0.46,0.078-0.626,0.234c-0.164,0.152-0.245,0.388-0.245,0.706H70.989z M73.555,46.208
				c-0.676,0-1.146,0.088-1.408,0.266c-0.263,0.177-0.393,0.458-0.393,0.845c0,0.318,0.078,0.57,0.233,0.754
				c0.156,0.184,0.362,0.276,0.617,0.276c0.36,0,0.642-0.142,0.844-0.426c0.202-0.283,0.303-0.855,0.303-1.715H73.555z"/>
			<path fill="#FFFFFF" d="M76.354,48.96v-7.819h0.893v7.819H76.354z"/>
			<path fill="#FFFFFF" d="M81.395,48.96v-7.819h2.613c0.637,0,1.14,0.17,1.509,0.51c0.371,0.337,0.558,0.792,0.558,1.366
				c0,1.059-0.501,1.673-1.504,1.843c1.172,0.096,1.759,0.731,1.759,1.907c0,0.74-0.196,1.29-0.589,1.651s-0.942,0.542-1.646,0.542
				H81.395z M82.42,44.424h1.46c0.779,0,1.168-0.41,1.168-1.228c0-0.372-0.108-0.662-0.323-0.871
				c-0.217-0.209-0.512-0.313-0.887-0.313H82.42V44.424z M82.42,48.089h1.456c0.414,0,0.756-0.124,1.024-0.372
				c0.27-0.248,0.404-0.572,0.404-0.973c0-0.488-0.134-0.851-0.404-1.089c-0.269-0.241-0.717-0.361-1.344-0.361H82.42V48.089z"/>
			<path fill="#FFFFFF" d="M87.892,43.436h0.892v3.84c0,0.751,0.307,1.126,0.919,1.126c0.357,0,0.626-0.131,0.808-0.393
				c0.18-0.262,0.271-0.551,0.271-0.866v-3.708h0.893v4.553c0,0.269,0.009,0.593,0.026,0.972h-0.919v-0.733
				c-0.279,0.566-0.758,0.85-1.434,0.85c-0.454,0-0.81-0.117-1.067-0.35c-0.259-0.237-0.388-0.583-0.388-1.036V43.436z"/>
			<path fill="#FFFFFF" d="M94.08,47.292c0,0.705,0.292,1.057,0.876,1.057c0.309,0,0.544-0.066,0.707-0.197
				c0.163-0.135,0.244-0.343,0.244-0.627c0-0.198-0.092-0.366-0.275-0.505c-0.184-0.142-0.46-0.295-0.829-0.462
				c-0.517-0.234-0.916-0.482-1.195-0.744c-0.28-0.266-0.42-0.583-0.42-0.951c0-0.485,0.168-0.864,0.505-1.137
				c0.336-0.272,0.802-0.409,1.397-0.409c0.556,0,0.982,0.121,1.28,0.361c0.297,0.238,0.446,0.526,0.446,0.866v0.303h-1.02
				c0-0.57-0.273-0.855-0.818-0.855c-0.248,0-0.45,0.067-0.605,0.202c-0.156,0.134-0.233,0.318-0.233,0.552
				c0,0.213,0.138,0.402,0.414,0.568c0.276,0.163,0.553,0.305,0.829,0.425c0.468,0.219,0.831,0.453,1.089,0.701
				c0.258,0.248,0.387,0.556,0.387,0.924c0,1.141-0.633,1.71-1.902,1.71c-1.264,0-1.896-0.594-1.896-1.784H94.08z"/>
			<path fill="#FFFFFF" d="M98.044,41.029h1.008v0.961h-1.008V41.029z M98.102,43.436h0.893v5.524h-0.893V43.436z"/>
			<path fill="#FFFFFF" d="M101.427,48.96h-0.892v-4.553c0-0.266-0.009-0.589-0.026-0.972h0.951l-0.032,0.733
				c0.163-0.315,0.368-0.535,0.616-0.659c0.251-0.128,0.549-0.192,0.892-0.192c0.507,0,0.876,0.135,1.111,0.404
				c0.237,0.266,0.355,0.726,0.355,1.381v3.856h-0.893v-3.84c0-0.716-0.317-1.073-0.951-1.073c-0.753,0-1.131,0.519-1.131,1.557
				V48.96z"/>
			<path fill="#FFFFFF" d="M106.841,46.484c0,0.716,0.088,1.207,0.266,1.472c0.178,0.262,0.453,0.393,0.829,0.393
				c0.273,0,0.494-0.096,0.665-0.288c0.169-0.194,0.264-0.451,0.281-0.77h0.977c0,0.556-0.167,0.993-0.499,1.312
				c-0.333,0.315-0.797,0.472-1.392,0.472c-0.85,0-1.41-0.262-1.679-0.786c-0.266-0.527-0.398-1.202-0.398-2.023
				c0-1.098,0.158-1.863,0.472-2.295c0.319-0.436,0.856-0.654,1.61-0.654c0.715,0,1.214,0.201,1.499,0.601
				c0.286,0.397,0.431,1.059,0.431,1.987v0.579H106.841z M106.841,45.81h2.108c0-0.762-0.111-1.279-0.334-1.551
				c-0.142-0.177-0.369-0.266-0.68-0.266c-0.396,0-0.679,0.133-0.844,0.398C106.924,44.657,106.841,45.13,106.841,45.81z"/>
			<path fill="#FFFFFF" d="M112.206,47.292c0,0.705,0.292,1.057,0.876,1.057c0.309,0,0.544-0.066,0.707-0.197
				c0.163-0.135,0.244-0.343,0.244-0.627c0-0.198-0.092-0.366-0.275-0.505c-0.184-0.142-0.46-0.295-0.829-0.462
				c-0.517-0.234-0.916-0.482-1.195-0.744c-0.281-0.266-0.42-0.583-0.42-0.951c0-0.485,0.168-0.864,0.505-1.137
				c0.336-0.272,0.802-0.409,1.397-0.409c0.556,0,0.982,0.121,1.28,0.361c0.297,0.238,0.446,0.526,0.446,0.866v0.303h-1.02
				c0-0.57-0.273-0.855-0.818-0.855c-0.248,0-0.45,0.067-0.605,0.202c-0.156,0.134-0.233,0.318-0.233,0.552
				c0,0.213,0.138,0.402,0.414,0.568c0.276,0.163,0.553,0.305,0.829,0.425c0.468,0.219,0.831,0.453,1.089,0.701
				c0.258,0.248,0.387,0.556,0.387,0.924c0,1.141-0.633,1.71-1.902,1.71c-1.264,0-1.896-0.594-1.896-1.784H112.206z"/>
			<path fill="#FFFFFF" d="M117.034,47.292c0,0.705,0.292,1.057,0.876,1.057c0.309,0,0.544-0.066,0.707-0.197
				c0.163-0.135,0.244-0.343,0.244-0.627c0-0.198-0.092-0.366-0.275-0.505c-0.184-0.142-0.46-0.295-0.829-0.462
				c-0.517-0.234-0.916-0.482-1.195-0.744c-0.281-0.266-0.42-0.583-0.42-0.951c0-0.485,0.168-0.864,0.505-1.137
				c0.336-0.272,0.802-0.409,1.397-0.409c0.556,0,0.982,0.121,1.28,0.361c0.297,0.238,0.446,0.526,0.446,0.866v0.303h-1.02
				c0-0.57-0.273-0.855-0.818-0.855c-0.248,0-0.45,0.067-0.605,0.202c-0.156,0.134-0.233,0.318-0.233,0.552
				c0,0.213,0.138,0.402,0.414,0.568c0.276,0.163,0.553,0.305,0.829,0.425c0.468,0.219,0.831,0.453,1.089,0.701
				c0.258,0.248,0.387,0.556,0.387,0.924c0,1.141-0.633,1.71-1.902,1.71c-1.264,0-1.896-0.594-1.896-1.784H117.034z"/>
		</g>
	</g>
	<g>
		<path fill="#7D7D7D" d="M99.245,70.973l-10.833-2.06l2.899-8.849l10.146,5.035l-1.602-11.138h9.305l-1.526,10.985l9.918-4.882
			l2.823,8.926l-10.984,1.908l7.782,7.856l-7.706,5.569l-5.111-9.842l-5.495,9.766l-7.476-5.416L99.245,70.973z M76.32,51h1.004
			v36.135H76.32V51z M65.344,72.069c0,6.518-4.23,9.453-10.441,9.453s-10.441-2.936-10.441-9.453V57.295h6.347v13.718
			c0,3.139,0.854,5.801,4.094,5.801c3.243,0,4.095-2.662,4.095-5.801V57.295h6.346V72.069L65.344,72.069z M25.348,57.295h7.781
			l9.179,23.818h-6.961l-1.776-5.084h-8.94l-1.875,5.084h-6.45L25.348,57.295z M29.238,62.208h-0.066l-3.072,9.315h5.972
			L29.238,62.208z M-2.772,57.295h16.789v4.504H3.575v4.914h9.861v4.504H3.575v5.393h10.816v4.504H-2.772V57.295z M-25.536,57.295
			h10.954c4.436,0,7.748,1.945,7.748,6.039c0,3.004-1.536,4.676-4.198,5.562v0.068c3.174,0.648,4.811,2.355,4.811,5.255
			c0,5.7-5.017,6.894-9.282,6.894h-10.033V57.295z M-19.188,66.711h1.774c2.082,0,4.232-0.511,4.232-2.524
			c0-2.185-2.048-2.39-4.164-2.39h-1.842L-19.188,66.711L-19.188,66.711z M-19.188,76.609h1.876c2.321,0,4.744-0.343,4.744-2.766
			c0-2.594-2.491-2.831-4.675-2.831h-1.945V76.609z M-44.818,57.295h7.78l9.179,23.818h-6.961l-1.775-5.084h-8.94l-1.877,5.084
			h-6.449L-44.818,57.295z M-40.929,62.208h-0.068l-3.072,9.315h5.973L-40.929,62.208z M-74.85,57.295h11.33
			c4.231,0,7.678,1.91,7.678,6.005c0,3.175-1.502,5.29-4.573,6.005v0.069c2.048,0.546,2.185,2.354,3.379,5.255l2.321,6.484h-6.62
			l-1.365-4.3c-1.297-4.095-2.116-5.118-4.471-5.118h-1.331v9.418h-6.348L-74.85,57.295L-74.85,57.295z M-68.503,67.189h1.672
			c2.047,0,4.641-0.068,4.641-2.764c0-2.218-2.217-2.629-4.641-2.629h-1.672V67.189z M-85.771,57.295h6.347v23.818h-6.347V57.295z
			 M-120.376,57.295h9.999l5.05,15.833h0.068l5.29-15.833h9.623v23.818h-6.21l0.103-18.291h-0.068l-6.075,18.291h-5.834
			l-5.802-18.291h-0.068l0.137,18.291h-6.21V57.295z"/>
		<g>
			<path fill="#7D7D7D" d="M-4.035,99.96l2.465-7.819h1.28l2.55,7.819H1.139l-0.563-1.875h-3.028l-0.579,1.875H-4.035z
				 M-2.192,97.213h2.486l-1.264-4.186L-2.192,97.213z"/>
			<path fill="#7D7D7D" d="M9.319,97.66h1.025c0,0.85-0.185,1.473-0.558,1.869c-0.369,0.396-0.938,0.596-1.71,0.596
				c-0.769,0-1.364-0.211-1.785-0.633c-0.417-0.424-0.626-1.223-0.626-2.396v-2.321c0-1.866,0.826-2.799,2.475-2.799
				c1.414,0,2.121,0.6,2.121,1.801v0.494H9.235v-0.261c0-0.794-0.381-1.19-1.142-1.19c-0.418,0-0.757,0.133-1.016,0.398
				C6.82,93.484,6.69,94.07,6.69,94.977v2.258c0,0.688,0.095,1.201,0.286,1.541c0.195,0.337,0.566,0.505,1.111,0.505
				c0.386,0,0.687-0.144,0.903-0.431C9.21,98.56,9.319,98.163,9.319,97.66z"/>
			<path fill="#7D7D7D" d="M11.545,97.268c0-1.145,0.165-1.922,0.494-2.332c0.333-0.411,0.872-0.617,1.616-0.617
				c0.779,0,1.319,0.225,1.62,0.675c0.301,0.446,0.451,1.174,0.451,2.184c0,1.08-0.156,1.835-0.467,2.263
				c-0.312,0.426-0.847,0.637-1.604,0.637c-0.737,0-1.273-0.197-1.61-0.594C11.711,99.082,11.545,98.344,11.545,97.268z
				 M12.497,96.911c0,0.921,0.075,1.558,0.229,1.913c0.152,0.35,0.461,0.525,0.929,0.525c0.435,0,0.731-0.18,0.887-0.537
				c0.156-0.357,0.233-0.991,0.233-1.901c0-0.727-0.099-1.218-0.297-1.477s-0.477-0.388-0.834-0.388c-0.404,0-0.696,0.14-0.876,0.42
				C12.586,95.742,12.497,96.225,12.497,96.911z"/>
			<path fill="#7D7D7D" d="M17.283,100.555h1.019c0,0.277,0.087,0.475,0.261,0.596c0.174,0.116,0.358,0.176,0.553,0.176
				c0.63,0,0.945-0.309,0.945-0.925V99.28c-0.266,0.454-0.679,0.68-1.243,0.68c-0.726,0-1.225-0.31-1.498-0.93
				c-0.195-0.446-0.292-1.106-0.292-1.981c0-1.82,0.577-2.73,1.732-2.73c0.604,0,1.039,0.283,1.301,0.851v-0.733h0.893v6.061
				c0,1.002-0.636,1.504-1.908,1.504c-0.58,0-1.02-0.126-1.317-0.377c-0.297-0.256-0.446-0.555-0.446-0.898V100.555z M17.979,97.044
				c0,0.79,0.085,1.353,0.255,1.688c0.169,0.334,0.439,0.5,0.808,0.5c0.34,0,0.598-0.135,0.775-0.404
				c0.18-0.271,0.271-0.824,0.271-1.656c0-0.84-0.083-1.403-0.249-1.689c-0.167-0.291-0.427-0.436-0.781-0.436
				c-0.4,0-0.68,0.166-0.839,0.499C18.058,95.875,17.979,96.375,17.979,97.044z"/>
			<path fill="#7D7D7D" d="M23.471,99.96h-0.892v-4.553c0-0.266-0.009-0.589-0.026-0.972h0.951l-0.032,0.733
				c0.163-0.315,0.369-0.534,0.617-0.659c0.251-0.127,0.549-0.191,0.892-0.191c0.506,0,0.876,0.135,1.11,0.404
				c0.237,0.266,0.356,0.726,0.356,1.381v3.856h-0.893v-3.841c0-0.715-0.317-1.072-0.951-1.072c-0.754,0-1.131,0.519-1.131,1.557
				V99.96z"/>
			<path fill="#7D7D7D" d="M27.944,92.029h1.009v0.961h-1.009V92.029z M28.002,94.436h0.893v5.524h-0.893V94.436z"/>
			<path fill="#7D7D7D" d="M30.032,99.96v-0.839l2.412-3.957h-2.284v-0.729h3.272v0.818l-2.438,3.979h2.507v0.728H30.032z"/>
			<path fill="#7D7D7D" d="M34.727,95.934c0.021-1.076,0.636-1.615,1.844-1.615c1.208,0,1.812,0.558,1.812,1.674v2.715
				c0,0.438,0.042,0.856,0.127,1.253h-0.994v-0.823c-0.255,0.627-0.714,0.939-1.375,0.939c-1.027,0-1.541-0.6-1.541-1.801
				c0-0.559,0.185-0.988,0.553-1.29c0.368-0.302,0.917-0.452,1.646-0.452h0.69v-0.473c0-0.711-0.312-1.067-0.94-1.067
				c-0.252,0-0.46,0.078-0.626,0.233c-0.164,0.152-0.245,0.389-0.245,0.707H34.727z M37.293,97.209
				c-0.676,0-1.146,0.088-1.408,0.266c-0.263,0.177-0.393,0.458-0.393,0.844c0,0.318,0.078,0.57,0.233,0.755
				s0.362,0.276,0.617,0.276c0.36,0,0.642-0.142,0.844-0.426c0.202-0.283,0.303-0.855,0.303-1.715H37.293z"/>
			<path fill="#7D7D7D" d="M41.001,99.96H40.11v-4.553c0-0.266-0.009-0.589-0.027-0.972h0.951l-0.033,0.733
				c0.163-0.315,0.369-0.534,0.617-0.659c0.251-0.127,0.549-0.191,0.892-0.191c0.507,0,0.876,0.135,1.11,0.404
				c0.237,0.266,0.356,0.726,0.356,1.381v3.856h-0.893v-3.841c0-0.715-0.316-1.072-0.951-1.072c-0.754,0-1.131,0.519-1.131,1.557
				V99.96z"/>
			<path fill="#7D7D7D" d="M44.735,95.109v-0.674h0.909v-1.047l0.893-0.398v1.445h1.19v0.674h-1.19v3.527
				c0,0.23,0.064,0.408,0.196,0.531c0.134,0.121,0.335,0.182,0.601,0.182c0.099,0,0.237-0.014,0.414-0.043v0.675
				c-0.213,0.063-0.506,0.095-0.881,0.095c-0.814,0-1.222-0.336-1.222-1.008v-3.959H44.735z"/>
			<path fill="#7D7D7D" d="M51.117,99.96v-7.819h2.411c0.839,0,1.47,0.252,1.891,0.754c0.421,0.5,0.632,1.492,0.632,2.975
				c0,1.771-0.239,2.896-0.717,3.374c-0.475,0.478-1.194,0.717-2.157,0.717H51.117z M52.142,99.089h1.015
				c0.69,0,1.173-0.17,1.45-0.51c0.28-0.344,0.419-0.921,0.419-1.731V95.1c0-0.758-0.129-1.295-0.387-1.609
				c-0.259-0.319-0.639-0.479-1.142-0.479h-1.354V99.089z"/>
			<path fill="#7D7D7D" d="M57.56,92.029h1.009v0.961H57.56V92.029z M57.618,94.436h0.893v5.524h-0.893V94.436z"/>
			<path fill="#7D7D7D" d="M60.194,100.555h1.02c0,0.277,0.087,0.475,0.261,0.596c0.174,0.116,0.358,0.176,0.553,0.176
				c0.63,0,0.945-0.309,0.945-0.925V99.28c-0.266,0.454-0.679,0.68-1.243,0.68c-0.726,0-1.225-0.31-1.498-0.93
				c-0.195-0.446-0.292-1.106-0.292-1.981c0-1.82,0.577-2.73,1.732-2.73c0.604,0,1.039,0.283,1.301,0.851v-0.733h0.893v6.061
				c0,1.002-0.636,1.504-1.908,1.504c-0.58,0-1.02-0.126-1.317-0.377c-0.297-0.256-0.446-0.555-0.446-0.898V100.555z M60.891,97.044
				c0,0.79,0.085,1.353,0.255,1.688c0.169,0.334,0.439,0.5,0.808,0.5c0.34,0,0.598-0.135,0.775-0.404
				c0.18-0.271,0.271-0.824,0.271-1.656c0-0.84-0.083-1.403-0.249-1.689c-0.167-0.291-0.427-0.436-0.781-0.436
				c-0.4,0-0.68,0.166-0.839,0.499C60.97,95.875,60.891,96.375,60.891,97.044z"/>
			<path fill="#7D7D7D" d="M65.417,92.029h1.008v0.961h-1.008V92.029z M65.474,94.436h0.893v5.524h-0.893V94.436z"/>
			<path fill="#7D7D7D" d="M67.094,95.109v-0.674h0.909v-1.047l0.893-0.398v1.445h1.19v0.674h-1.19v3.527
				c0,0.23,0.065,0.408,0.196,0.531c0.134,0.121,0.335,0.182,0.601,0.182c0.099,0,0.237-0.014,0.414-0.043v0.675
				c-0.212,0.063-0.505,0.095-0.881,0.095c-0.815,0-1.223-0.336-1.223-1.008v-3.959H67.094z"/>
			<path fill="#7D7D7D" d="M70.989,95.934c0.021-1.076,0.636-1.615,1.844-1.615c1.208,0,1.812,0.558,1.812,1.674v2.715
				c0,0.438,0.042,0.856,0.127,1.253h-0.994v-0.823c-0.255,0.627-0.714,0.939-1.375,0.939c-1.027,0-1.541-0.6-1.541-1.801
				c0-0.559,0.185-0.988,0.553-1.29c0.368-0.302,0.917-0.452,1.646-0.452h0.69v-0.473c0-0.711-0.312-1.067-0.94-1.067
				c-0.252,0-0.46,0.078-0.626,0.233c-0.164,0.152-0.245,0.389-0.245,0.707H70.989z M73.555,97.209
				c-0.676,0-1.146,0.088-1.408,0.266c-0.263,0.177-0.393,0.458-0.393,0.844c0,0.318,0.078,0.57,0.233,0.755
				s0.362,0.276,0.617,0.276c0.36,0,0.642-0.142,0.844-0.426c0.202-0.283,0.303-0.855,0.303-1.715H73.555z"/>
			<path fill="#7D7D7D" d="M76.354,99.96v-7.819h0.893v7.819H76.354z"/>
			<path fill="#7D7D7D" d="M81.395,99.96v-7.819h2.613c0.637,0,1.14,0.17,1.509,0.51c0.371,0.337,0.558,0.791,0.558,1.365
				c0,1.059-0.501,1.674-1.504,1.844c1.172,0.096,1.759,0.731,1.759,1.907c0,0.739-0.196,1.29-0.589,1.651s-0.942,0.542-1.646,0.542
				H81.395z M82.42,95.424h1.46c0.779,0,1.168-0.41,1.168-1.228c0-0.372-0.108-0.662-0.323-0.871
				c-0.217-0.209-0.512-0.313-0.887-0.313H82.42V95.424z M82.42,99.089h1.456c0.414,0,0.756-0.124,1.024-0.372
				c0.27-0.248,0.404-0.572,0.404-0.973c0-0.488-0.134-0.851-0.404-1.088c-0.269-0.241-0.717-0.361-1.344-0.361H82.42V99.089z"/>
			<path fill="#7D7D7D" d="M87.892,94.436h0.892v3.84c0,0.752,0.307,1.127,0.919,1.127c0.357,0,0.626-0.131,0.808-0.393
				c0.18-0.263,0.271-0.551,0.271-0.867v-3.707h0.893v4.553c0,0.27,0.009,0.593,0.026,0.972h-0.919v-0.733
				c-0.279,0.566-0.758,0.85-1.434,0.85c-0.454,0-0.81-0.116-1.067-0.35c-0.259-0.237-0.388-0.582-0.388-1.035V94.436z"/>
			<path fill="#7D7D7D" d="M94.08,98.293c0,0.704,0.292,1.057,0.876,1.057c0.309,0,0.544-0.066,0.707-0.197
				c0.163-0.135,0.244-0.343,0.244-0.627c0-0.197-0.092-0.365-0.275-0.504c-0.184-0.143-0.46-0.296-0.829-0.463
				c-0.517-0.233-0.916-0.481-1.195-0.743c-0.28-0.266-0.42-0.583-0.42-0.951c0-0.485,0.168-0.864,0.505-1.137
				c0.336-0.272,0.802-0.409,1.397-0.409c0.556,0,0.982,0.121,1.28,0.361c0.297,0.238,0.446,0.525,0.446,0.866v0.303h-1.02
				c0-0.57-0.273-0.855-0.818-0.855c-0.248,0-0.45,0.067-0.605,0.202c-0.156,0.135-0.233,0.318-0.233,0.553
				c0,0.213,0.138,0.401,0.414,0.568c0.276,0.162,0.553,0.305,0.829,0.425c0.468,0.22,0.831,0.453,1.089,0.701
				c0.258,0.247,0.387,0.556,0.387,0.924c0,1.141-0.633,1.71-1.902,1.71c-1.264,0-1.896-0.594-1.896-1.783H94.08z"/>
			<path fill="#7D7D7D" d="M98.044,92.029h1.008v0.961h-1.008V92.029z M98.102,94.436h0.893v5.524h-0.893V94.436z"/>
			<path fill="#7D7D7D" d="M101.427,99.96h-0.892v-4.553c0-0.266-0.009-0.589-0.026-0.972h0.951l-0.032,0.733
				c0.163-0.315,0.368-0.534,0.616-0.659c0.251-0.127,0.549-0.191,0.892-0.191c0.507,0,0.876,0.135,1.111,0.404
				c0.237,0.266,0.355,0.726,0.355,1.381v3.856h-0.893v-3.841c0-0.715-0.317-1.072-0.951-1.072c-0.753,0-1.131,0.519-1.131,1.557
				V99.96z"/>
			<path fill="#7D7D7D" d="M106.841,97.484c0,0.716,0.088,1.207,0.266,1.473c0.178,0.262,0.453,0.393,0.829,0.393
				c0.273,0,0.494-0.096,0.665-0.287c0.169-0.195,0.264-0.451,0.281-0.77h0.977c0,0.555-0.167,0.992-0.499,1.312
				c-0.333,0.315-0.797,0.472-1.392,0.472c-0.85,0-1.41-0.262-1.679-0.785c-0.266-0.527-0.398-1.203-0.398-2.023
				c0-1.099,0.158-1.863,0.472-2.295c0.319-0.436,0.856-0.654,1.61-0.654c0.715,0,1.214,0.201,1.499,0.601
				c0.286,0.397,0.431,1.06,0.431,1.987v0.578H106.841z M106.841,96.811h2.108c0-0.762-0.111-1.279-0.334-1.552
				c-0.142-0.177-0.369-0.266-0.68-0.266c-0.396,0-0.679,0.133-0.844,0.398C106.924,95.657,106.841,96.13,106.841,96.811z"/>
			<path fill="#7D7D7D" d="M112.206,98.293c0,0.704,0.292,1.057,0.876,1.057c0.309,0,0.544-0.066,0.707-0.197
				c0.163-0.135,0.244-0.343,0.244-0.627c0-0.197-0.092-0.365-0.275-0.504c-0.184-0.143-0.46-0.296-0.829-0.463
				c-0.517-0.233-0.916-0.481-1.195-0.743c-0.281-0.266-0.42-0.583-0.42-0.951c0-0.485,0.168-0.864,0.505-1.137
				c0.336-0.272,0.802-0.409,1.397-0.409c0.556,0,0.982,0.121,1.28,0.361c0.297,0.238,0.446,0.525,0.446,0.866v0.303h-1.02
				c0-0.57-0.273-0.855-0.818-0.855c-0.248,0-0.45,0.067-0.605,0.202c-0.156,0.135-0.233,0.318-0.233,0.553
				c0,0.213,0.138,0.401,0.414,0.568c0.276,0.162,0.553,0.305,0.829,0.425c0.468,0.22,0.831,0.453,1.089,0.701
				c0.258,0.247,0.387,0.556,0.387,0.924c0,1.141-0.633,1.71-1.902,1.71c-1.264,0-1.896-0.594-1.896-1.783H112.206z"/>
			<path fill="#7D7D7D" d="M117.034,98.293c0,0.704,0.292,1.057,0.876,1.057c0.309,0,0.544-0.066,0.707-0.197
				c0.163-0.135,0.244-0.343,0.244-0.627c0-0.197-0.092-0.365-0.275-0.504c-0.184-0.143-0.46-0.296-0.829-0.463
				c-0.517-0.233-0.916-0.481-1.195-0.743c-0.281-0.266-0.42-0.583-0.42-0.951c0-0.485,0.168-0.864,0.505-1.137
				c0.336-0.272,0.802-0.409,1.397-0.409c0.556,0,0.982,0.121,1.28,0.361c0.297,0.238,0.446,0.525,0.446,0.866v0.303h-1.02
				c0-0.57-0.273-0.855-0.818-0.855c-0.248,0-0.45,0.067-0.605,0.202c-0.156,0.135-0.233,0.318-0.233,0.553
				c0,0.213,0.138,0.401,0.414,0.568c0.276,0.162,0.553,0.305,0.829,0.425c0.468,0.22,0.831,0.453,1.089,0.701
				c0.258,0.247,0.387,0.556,0.387,0.924c0,1.141-0.633,1.71-1.902,1.71c-1.264,0-1.896-0.594-1.896-1.783H117.034z"/>
		</g>
	</g>
</g>
</svg>
